<?xml version="1.0" encoding="utf-8"?>

<!DOCTYPE svg PUBLIC "-//W3C//DTD SVG 1.1//EN" "http://www.w3.org/Graphics/SVG/1.1/DTD/svg11.dtd">
<svg version="1.1" id="Layer_1" xmlns="http://www.w3.org/2000/svg" xmlns:xlink="http://www.w3.org/1999/xlink" x="0px" y="0px"
	 viewBox="0 0 1965.829 1659.354" enable-background="new 0 0 1965.829 1659.354" xml:space="preserve">
<g>
	<path fill="#3FA9F5" d="M904.69,228.796c0,0-1.387,28.913-19.723,43.909c-18.343,14.998-43.921,30.303-25.665,51.965
		c11.129,13.206,39.943-7.311,34.105-26.324C887.569,279.334,909.14,250.406,904.69,228.796z"/>
	<path fill="#22B573" d="M391.267,680.41c0,0,24.073-11.53,44.27-3.211c20.201,8.323,43.817,22.384,53.409-1.914
		c5.848-14.813-23.416-29.218-36.292-16.158C439.777,672.186,406.858,667.34,391.267,680.41z"/>
	<path fill="#009245" d="M1623.792,1309.571c0,0-34.794,18.566-65.141,7.586c-30.355-10.987-66.118-30.224-78.714,6.258
		c-7.679,22.241,36.443,41.624,54.61,21.519C1552.714,1324.829,1601.618,1329.866,1623.792,1309.571z"/>
	<path fill="#0071BC" d="M158.027,605.432c0,0,11.783,18.857,6.775,36.35c-5.012,17.498-14.456,38.356,6.551,44.037
		c12.806,3.464,22.011-22.102,10.002-31.547C169.346,644.827,170.297,617.124,158.027,605.432z"/>
	<path fill="#9E005D" d="M1121.871,1504.674c0,0,17.787-25.161,42.827-28.132c25.047-2.969,56.764-2.073,52.77-31.964
		c-2.434-18.222-40.039-16.289-45.676,4.118C1166.154,1469.103,1130.24,1482.729,1121.871,1504.674z"/>
	<path fill="#534741" d="M1112.28,1485.487c0,0,11.594-39.088,41.707-53.452c30.124-14.365,70.246-26.723,52.539-62.479
		c-10.795-21.799-57.093-3.395-55.484,24.572C1152.651,1422.095,1113.441,1454.432,1112.28,1485.487z"/>
	<path fill="#8C6239" d="M1629.396,1265.962c0,0,12.277-32.49,38.754-42.826c26.486-10.335,61.342-18.344,48.517-49.823
		c-7.818-19.191-48.297-6.428-48.666,17.433C1667.631,1214.608,1632.309,1239.649,1629.396,1265.962z"/>
	<path fill="#C7B299" d="M1493.623,510.655c0,0-5.901,24.775-24.195,34.76c-18.3,9.986-42.906,19.059-30.644,40.759
		c7.475,13.229,35.727,0.174,33.771-17.215C1470.6,551.57,1493.956,530.065,1493.623,510.655z"/>
	<path fill="#009245" d="M1168.34,635.664c0,0,11.564-34.169,38.671-45.858c27.116-11.689,63.005-21.266,48.55-53.475
		c-8.812-19.636-50.364-4.92-49.881,19.861C1206.164,580.973,1170.409,608.247,1168.34,635.664z"/>
	<path fill="#C1272D" d="M257.79,467.716c0,0-30.9-10.196-41.628-34.566c-10.729-24.378-19.614-56.684-48.566-43.425
		c-17.651,8.083-4.092,45.461,18.256,44.856C208.2,433.975,233.045,466.038,257.79,467.716z"/>
	<path fill="#39B54A" d="M797.99,252.593c0,0-14.946-22.591-9.4-44.053c5.55-21.467,16.391-47.167-9.37-53.421
		c-15.705-3.813-26.106,27.612-11.183,38.734C782.96,204.976,782.678,238.742,797.99,252.593z"/>
	<path fill="#ED1C24" d="M1020.867,404.465c0,0-13.445-19.196-9.141-37.886c4.307-18.695,13.094-41.171-9.331-45.989
		c-13.671-2.937-21.945,24.481-8.783,33.758C1006.774,363.626,1007.305,392.838,1020.867,404.465z"/>
	<path fill="#8CC63F" d="M1394.772,1036.59c0,0-1.958-26.802,13.263-42.674c15.227-15.875,37.086-32.842,17.838-50.763
		c-11.734-10.926-35.993,11.208-28.485,28.077C1404.895,988.099,1388.252,1017.172,1394.772,1036.59z"/>
	<path fill="#0000FF" d="M896.54,543.55c0,0,36.983,14.296,48.551,44.61c11.569,30.324,20.408,70.183,56.454,55.816
		c21.975-8.759,7.757-55.077-19.479-55.706C954.831,587.642,926.552,547.104,896.54,543.55z"/>
	<path fill="#FF0000" d="M1000.288,175.554c0,0,18.662,26.904,12.531,52.986c-6.136,26.09-18.555,57.435,12.744,64.308
		c19.08,4.19,30.814-34.062,12.484-47.107C1019.718,232.698,1019.16,191.885,1000.288,175.554z"/>
	<path fill="#ED1E79" d="M716.009,157.69c0,0-41.626-24.118-57.274-2.1c-15.643,22.018-47.668,22.527-56.312-3.474
		C593.776,126.111,666.935,101.357,716.009,157.69z"/>
	<path fill="#00FFFF" d="M1703.805,603.444c0,0-38.851-17.381-50.588,3.436c-11.732,20.816-39.864,24.219-49.869,2.139
		C1593.341,586.936,1655.428,558.406,1703.805,603.444z"/>
	<path fill="#C69C6D" d="M1158.982,1629.677c0,0,35.964-49.676,10.061-72.364c-25.903-22.682-22.412-63.363,11.679-70.967
		C1214.817,1478.739,1236.761,1574.716,1158.982,1629.677z"/>
	<path fill="#009245" d="M687.924,1262.198c0,0,26.284-53.456-2.236-70.929c-28.519-17.467-31.848-56.986-0.457-69.858
		C716.627,1108.537,753.375,1196.825,687.924,1262.198z"/>
	<path fill="#F7931E" d="M754.486,893.672c0,0,39.725-11.865,35.157-34.69c-4.571-22.823,14.032-43.215,35.451-33.276
		C846.517,835.646,818.821,896.169,754.486,893.672z"/>
	<path fill="#ED1E79" d="M438.041,596.171c0,0-52.197,66.086-17.963,98.702c34.234,32.608,27.106,88.22-20.103,96.693
		C352.759,800.042,328.171,667.103,438.041,596.171z"/>
	<path fill="#534741" d="M386.446,765.753c0,0,2.61,57.94,35.138,59.492c32.524,1.548,53.881,33.718,33.118,59.41
		C433.937,910.353,361.21,852.214,386.446,765.753z"/>
	<path fill="#8C6239" d="M1059.03,407.424c0,0,64.779,50.84,96.569,17.267c31.781-33.574,86.182-26.772,94.61,19.365
		C1258.64,490.199,1128.722,514.644,1059.03,407.424z"/>
	<path fill="#9E005D" d="M1674.869,677.171c0,0-25.641,79.387,17.409,97.849c43.048,18.453,55.635,72.551,14.728,96.722
		C1666.093,895.918,1597.351,780.976,1674.869,677.171z"/>
	<path fill="#FBB03B" d="M1711.49,963.008c0,0-19.836,69.218,17.831,83.905c37.664,14.68,50.078,60.984,15.486,83.01
		C1710.209,1151.954,1647.607,1054.78,1711.49,963.008z"/>
	<path fill="#0071BC" d="M1288.253,127.438c0,0-60.634,21.858-51.566,56.893c9.073,35.029-18.036,68.294-52.144,54.722
		C1150.429,225.481,1188.174,129.138,1288.253,127.438z"/>
	<path fill="#A67C52" d="M779.742,978.025c0,0-49.675,25.561-37.967,54.661c11.711,29.095-7.874,60.715-38.707,52.86
		C672.229,1077.689,693.911,990.664,779.742,978.025z"/>
	<path fill="#009245" d="M112.564,544.284c0,0-26.669,68.736,10.373,87.218c37.04,18.475,45.389,66.846,8.065,86.088
		C93.673,736.836,38.88,631.92,112.564,544.284z"/>
	<path fill="#FCEE21" d="M1425.497,1187.142c0,0-25.275-47.592-53.195-35.935c-27.916,11.659-58.658-6.835-51.467-36.672
		C1328.026,1084.694,1412.233,1104.518,1425.497,1187.142z"/>
	<path fill="#FBB03B" d="M1215.261,674.605c0,0-76.679,8.791-75.75,52.117c0.935,43.32-39.81,74.629-75.827,49.427
		C1027.662,750.944,1098.16,649.049,1215.261,674.605z"/>
	<path fill="#ED1C24" d="M1318.517,207.12c0,0,28.772-51.504,48.184-35.079c19.412,16.429,37.713-22.095,6.364-43.825
		C1341.714,106.488,1312.661,161.603,1318.517,207.12z"/>
	<path fill="#FF0000" d="M284.423,315.629c0,0-0.614,81.301-34.957,74.328c-34.346-6.978-30.914,51.699,21.368,57.168
		C323.118,452.59,321.677,366.74,284.423,315.629z"/>
	<path fill="#0000FF" d="M817.019,652.13c0,0,44.304,70.253,10.925,83.194c-33.384,12.939,1.924,61.505,49.9,37.378
		C925.819,748.571,877.239,675.54,817.019,652.13z"/>
	<path fill="#006837" d="M1478.849,860.331c0,0,36.607-37.84,49.592-19.228c12.984,18.615,37.588-10.426,15.521-36.346
		C1521.892,778.838,1484.217,819.729,1478.849,860.331z"/>
	<path fill="#754C24" d="M836.862,913.874c0,0-45.385,22.54-51.173,1.479c-5.786-21.064-37.451-2.641-25.778,27.973
		C771.587,973.938,818.923,948.975,836.862,913.874z"/>
	<path fill="#534741" d="M1162.854,1365.49c0,0,15.375-75.206,45.92-62.491c30.547,12.719,38.054-42.264-9.385-56.852
		C1151.949,1231.562,1137.65,1311.356,1162.854,1365.49z"/>
	<path fill="#FF7BAC" d="M1375.756,1153.402c0,0-61.886,28.095-68.661-0.406c-6.772-28.504-50.076-5.288-35.858,36.292
		C1285.459,1230.867,1350.074,1199.615,1375.756,1153.402z"/>
	<path fill="#FFFF00" d="M1555.803,1145.582c0,0,13.056-71.388,42.178-59.969c29.124,11.423,35.139-40.696-9.987-53.553
		C1542.866,1019.206,1530.917,1094.909,1555.803,1145.582z"/>
	<path fill="#009245" d="M752.256,879.42c0,0-1.849-46.327,17.902-43.284c19.753,3.046,16.211-30.285-13.718-31.986
		C726.511,802.451,729.654,851.314,752.256,879.42z"/>
	<path fill="#0071BC" d="M1825.176,865.54c0,0,39.192,23.02,26.217,37.699c-12.978,14.679,16.391,29.417,33.651,5.632
		C1902.303,885.084,1860.334,861.788,1825.176,865.54z"/>
	<path fill="#534741" d="M1294.53,748.827c0,0,50.394,64.027,19.146,80.059c-31.253,16.03,8.151,59.815,52.5,31.38
		C1410.524,831.827,1355.675,765.525,1294.53,748.827z"/>
	<path fill="#FF931E" d="M1151.649,1193.954c0,0-64.588,7.894-62.594-20.081c1.997-27.978-44.218-19.205-43.168,22.853
		C1046.939,1238.783,1114.926,1228.789,1151.649,1193.954z"/>
	<path fill="#F15A24" d="M685.782,101.375c0,0-41.907-2.568-37.361-20.084c4.549-17.518-25.803-17.373-30.071,9.436
		C614.085,117.536,658.395,119.17,685.782,101.375z"/>
	<path fill="#998675" d="M1612.651,284.073c0,0-5.415,72.933-35.821,64.62c-30.409-8.318-30.839,44.551,15.759,52.588
		C1639.187,409.313,1643.03,332.174,1612.651,284.073z"/>
	<path fill="#8CC63F" d="M1317.172,975.348c0,0,33.434,23.71,20.642,35.896c-12.794,12.186,12.454,27.696,29.799,7.66
		C1384.957,998.867,1349.05,974.693,1317.172,975.348z"/>
	<path fill="#FF931E" d="M534.794,867.914c23.528,1.132,42.147-20.165,41.554-43.716c-0.292-11.485-5.124-21.776-12.699-29.253
		c-0.894-0.988-1.943-1.966-3.279-2.93c-5.957-4.776-13.198-7.94-21.104-8.97c-0.569-0.166-1.04-0.324-1.63-0.491
		c-84.859-23.033-150.731,15.436-150.731,15.436c87.985-7.071,107.749,46.68,107.749,46.68S506.882,866.56,534.794,867.914z"/>
	<path fill="#FF00FF" d="M575.543,461.973c1.126,12.35,13.588,20.505,25.824,18.478c5.967-0.99,10.98-4.259,14.326-8.755
		c0.45-0.538,0.883-1.156,1.288-1.923c2.056-3.454,3.177-7.46,3.138-11.657c0.045-0.309,0.093-0.566,0.137-0.886
		c5.821-45.924-19.04-77.464-19.04-77.464c10.103,45.359-16.481,59.584-16.481,59.584S574.214,447.321,575.543,461.973z"/>
	<path fill="#FF7BAC" d="M1073.992,377.247c-4-11.513-17.819-16.339-29.011-11.507c-5.457,2.358-9.464,6.665-11.591,11.745
		c-0.302,0.62-0.569,1.312-0.773,2.14c-1.143,3.782-1.263,7.869-0.231,11.863c0.03,0.305,0.045,0.562,0.079,0.877
		c5.329,45.186,36.517,69.38,36.517,69.38c-20.385-40.873,1.603-60.741,1.603-60.741S1078.732,390.907,1073.992,377.247z"/>
	<path fill="#1B1464" d="M592.428,952.144c3.885-22.425-14.32-42.813-36.972-45.047c-11.047-1.087-21.49,2.321-29.56,8.696
		c-1.054,0.74-2.116,1.629-3.199,2.795c-5.289,5.144-9.184,11.71-11.112,19.168c-0.227,0.526-0.434,0.959-0.664,1.505
		c-32.184,78.626-3.138,146.366-3.138,146.366c3.691-85.206,57.582-97.76,57.582-97.76S587.808,978.746,592.428,952.144z"/>
	<path fill="#8C6239" d="M272.787,912.579c15.971,9.326,36.664,1.254,44.798-15.359c3.965-8.103,4.335-17.021,1.773-24.977
		c-0.264-1.012-0.639-2.074-1.22-3.23c-2.415-5.487-6.308-10.318-11.439-13.904c-0.336-0.322-0.607-0.603-0.957-0.933
		c-50.726-46.832-110.552-43.952-110.552-43.952c63.828,27.006,58.083,71.604,58.083,71.604S253.844,901.507,272.787,912.579z"/>
	<path fill="#00FFFF" d="M1294.789,1264.116c-9.992,9.524-8.484,26.034,1.747,35.304c4.991,4.52,11.31,6.63,17.545,6.439
		c0.781,0.02,1.62-0.029,2.568-0.207c4.435-0.597,8.704-2.39,12.337-5.327c0.301-0.174,0.558-0.31,0.867-0.493
		c44.079-26.69,54.39-70.19,54.39-70.19c-32.571,40.188-63.366,26.842-63.366,26.842S1306.648,1252.821,1294.789,1264.116z"/>
	<path fill="#FF7BAC" d="M1321.924,892.622c-5.05-10.565-18.76-13.696-28.93-7.886c-4.959,2.834-8.324,7.375-9.812,12.453
		c-0.222,0.624-0.403,1.314-0.51,2.126c-0.687,3.733-0.365,7.648,1.048,11.352c0.061,0.288,0.103,0.531,0.169,0.829
		c9.917,42.574,42.281,62.342,42.281,62.342c-23.832-36.847-4.961-58.167-4.961-58.167S1327.909,905.159,1321.924,892.622z"/>
	<path fill="#FFFF00" d="M1735.131,661.357c15.727-3.023,24.616-20.078,20.451-35.544c-2.033-7.542-6.875-13.567-13.079-17.293
		c-0.749-0.509-1.599-0.988-2.636-1.41c-4.702-2.201-9.993-3.131-15.381-2.545c-0.403-0.019-0.739-0.047-1.156-0.063
		c-59.76-1.62-97.119,34.353-97.119,34.353c57.002-18.772,78.674,13.576,78.674,13.576S1716.472,664.935,1735.131,661.357z"/>
	<path fill="#0071BC" d="M1186.403,122.597c0.082-18.337-17.114-32.096-35.411-30.835c-8.923,0.616-16.762,4.724-22.321,10.87
		c-0.738,0.729-1.463,1.578-2.167,2.649c-3.513,4.795-5.727,10.534-6.26,16.718c-0.11,0.448-0.217,0.82-0.326,1.285
		c-15.034,66.781,17.121,116.708,17.121,116.708c-8.486-68.191,32.649-85.387,32.649-85.387S1186.297,144.352,1186.403,122.597z"/>
	<path fill="#662D91" d="M429.722,904.683c-4.416-14.764-21.605-21.624-36.008-16.139c-7.024,2.676-12.323,7.895-15.29,14.195
		c-0.415,0.766-0.791,1.626-1.095,2.66c-1.652,4.714-2.03,9.87-0.947,14.972c0.021,0.387,0.026,0.712,0.052,1.113
		c4.233,57.37,42.289,89.655,42.289,89.655c-23.489-52.755,5.383-76.635,5.383-76.635S434.954,922.2,429.722,904.683z"/>
	<path fill="#2E3192" d="M1536.307,501.083c-22.558,2.77-36.781,26.066-32.368,48.364c2.155,10.874,8.432,19.869,16.858,25.741
		c1.012,0.793,2.169,1.552,3.597,2.25c6.446,3.568,13.848,5.392,21.534,5.079c0.568,0.065,1.042,0.138,1.63,0.2
		c84.459,8.03,140.808-39.32,140.808-39.32c-82.51,21.108-110.091-26.774-110.091-26.774S1563.07,497.807,1536.307,501.083z"/>
	<path fill="#8C6239" d="M185.651,639.59c12.579,2.459,24.279-7.544,25.811-20.271c0.746-6.207-1.047-12.128-4.538-16.749
		c-0.404-0.602-0.891-1.211-1.535-1.835c-2.832-3.04-6.482-5.313-10.658-6.489c-0.293-0.134-0.534-0.256-0.839-0.392
		c-43.88-19.073-82.372-3.539-82.372-3.539c47.93,3.11,54.346,33.605,54.346,33.605S170.729,636.666,185.651,639.59z"/>
	<path fill="#FF00FF" d="M747.821,499.599c-2.177-22.529-25.002-37.289-47.315-33.469c-10.881,1.865-19.998,7.883-26.06,16.12
		c-0.816,0.987-1.601,2.119-2.333,3.523c-3.718,6.325-5.725,13.648-5.611,21.308c-0.079,0.564-0.164,1.034-0.241,1.618
		c-10.17,83.876,35.518,141.195,35.518,141.195c-18.889-82.687,29.491-108.912,29.491-108.912S750.393,526.327,747.821,499.599z"/>
	<path fill="#C69C6D" d="M287.326,695.511c-12.986-5.097-27.472,3.321-31.606,16.647c-2.015,6.499-1.255,13.19,1.578,18.821
		c0.314,0.724,0.717,1.471,1.284,2.266c2.437,3.81,5.899,6.958,10.14,9.035c0.288,0.201,0.522,0.379,0.822,0.584
		c43.244,29.017,87.499,19.925,87.499,19.925c-50.707-12.719-51.603-46.626-51.603-46.626S302.73,701.564,287.326,695.511z"/>
	<path fill="#22B573" d="M581.009,381.345c0.703-19.175-16.818-34.143-35.996-33.441c-9.353,0.344-17.69,4.376-23.71,10.617
		c-0.796,0.737-1.583,1.601-2.356,2.698c-3.835,4.897-6.344,10.824-7.11,17.274c-0.13,0.465-0.254,0.85-0.384,1.332
		c-17.972,69.336,13.976,122.635,13.976,122.635c-6.579-71.603,37.021-88.202,37.021-88.202S580.166,404.093,581.009,381.345z"/>
	<path fill="#3FA9F5" d="M936.065,751.109c-5.652,25.522-21.219,36.731-21.219,36.731s0.064,0.108,0.16,0.27
		c-3.792,3.142-5.661,8.292-4.351,13.378c1.807,7.019,8.964,11.248,15.985,9.44c3.423-0.882,6.175-3.042,7.894-5.834
		c0.233-0.335,0.455-0.72,0.653-1.186c1.018-2.115,3.24-6.103,3.001-8.541C938.188,795.368,945.215,768.012,936.065,751.109z"/>
	<path fill="#FF7BAC" d="M1889.441,689.375c-27.918-7.579-39.497-25.371-39.497-25.371s-0.123,0.065-0.307,0.163
		c-3.275-4.355-8.871-6.69-14.561-5.508c-7.853,1.631-12.901,9.323-11.269,17.178c0.796,3.83,3.041,6.985,6.037,9.03
		c0.358,0.276,0.773,0.54,1.277,0.783c2.284,1.236,6.577,3.899,9.285,3.763C1840.405,689.413,1870.278,698.607,1889.441,689.375z"/>
	<path fill="#8CC63F" d="M1212.623,500.837c-29.407,11.414-51.083,3.292-51.083,3.292s-0.066,0.137-0.164,0.342
		c-5.693-1.703-12.115-0.131-16.344,4.589c-5.837,6.513-5.29,16.531,1.226,22.369c3.177,2.847,7.189,4.163,11.142,4.019
		c0.492,0.01,1.028-0.026,1.627-0.139c2.805-0.393,8.296-0.834,10.583-2.706C1169.611,532.602,1201.779,521.34,1212.623,500.837z"/>
	<path fill="#FF0000" d="M664.675,553.534c-30.434,31.94-62.703,34.551-62.703,34.551s-0.002,0.213-0.004,0.531
		c-8.219,1.231-15.413,7.04-17.959,15.53c-3.514,11.717,3.136,24.071,14.857,27.585c5.715,1.713,11.576,0.993,16.494-1.541
		c0.629-0.279,1.286-0.644,1.977-1.144c3.316-2.166,10.005-5.99,11.787-9.72C629.124,619.326,663.144,585.937,664.675,553.534z"/>
	<path fill="#FF0000" d="M412.468,173.853c-28.608,20.557-54.315,17.829-54.315,17.829s-0.033,0.167-0.082,0.416
		c-6.631-0.251-13.136,3.243-16.391,9.527c-4.492,8.673-1.102,19.352,7.574,23.844c4.231,2.19,8.936,2.493,13.17,1.233
		c0.535-0.126,1.104-0.315,1.721-0.605c2.923-1.209,8.737-3.219,10.688-5.882C374.834,220.214,406.471,199.051,412.468,173.853z"/>
	<path fill="#0000FF" d="M881.161,581.891c21.592,12.563,27.273,29.993,27.273,29.993s0.117-0.027,0.293-0.067
		c1.758,4.365,5.904,7.563,10.914,7.85c6.915,0.395,12.845-4.892,13.24-11.809c0.192-3.373-0.975-6.506-3.017-8.882
		c-0.237-0.31-0.524-0.624-0.89-0.939c-1.629-1.542-4.614-4.723-6.903-5.214C922.071,592.822,899.209,578.474,881.161,581.891z"/>
	<path fill="#8CC63F" d="M1326.829,128.341c-44.164-11.227-62.854-38.956-62.854-38.956s-0.193,0.106-0.48,0.265
		c-5.27-6.776-14.142-10.311-23.075-8.305c-12.328,2.769-20.083,15.011-17.312,27.342c1.351,6.013,4.967,10.924,9.738,14.069
		c0.57,0.425,1.231,0.832,2.031,1.201c3.629,1.889,10.458,5.974,14.719,5.69C1249.597,129.647,1296.882,143.369,1326.829,128.341z"
		/>
	<path fill="#C7B299" d="M291.997,655.355c21.083,21.797,21.973,44.033,21.973,44.033s0.146,0.007,0.364,0.018
		c0.615,5.68,4.403,10.783,10.163,12.77c7.949,2.742,16.62-1.479,19.362-9.431c1.337-3.877,1.006-7.922-0.596-11.371
		c-0.174-0.44-0.406-0.901-0.73-1.39c-1.395-2.338-3.833-7.039-6.346-8.368C336.187,681.615,314.208,657.314,291.997,655.355z"/>
	<path fill="#C1272D" d="M1274.448,583.828c-38.75,7.175-63.469-7.835-63.469-7.835s-0.113,0.153-0.281,0.382
		c-6.592-3.414-14.84-2.977-21.129,1.833c-8.679,6.638-10.336,19.061-3.695,27.742c3.238,4.233,7.857,6.781,12.743,7.523
		c0.602,0.127,1.268,0.208,2.03,0.208c3.534,0.169,10.377,0.905,13.62-0.861C1214.267,612.82,1256.371,606.474,1274.448,583.828z"/>
	<path fill="#FF7BAC" d="M221.223,731.08c-28.435,11.495-49.618,3.891-49.618,3.891s-0.062,0.134-0.155,0.335
		c-5.558-1.579-11.78,0.037-15.828,4.682c-5.587,6.411-4.919,16.142,1.494,21.73c3.128,2.724,7.045,3.95,10.887,3.756
		c0.479,0.003,0.999-0.039,1.58-0.157c2.721-0.42,8.054-0.923,10.253-2.774C179.836,762.544,210.958,751.16,221.223,731.08z"/>
	<path fill="#A67C52" d="M773.51,148.243c-30.139-30.351-31.806-61.695-31.806-61.695s-0.206-0.007-0.514-0.018
		c-0.973-7.999-6.41-15.126-14.57-17.821c-11.261-3.72-23.413,2.395-27.132,13.659c-1.814,5.493-1.272,11.192,1.051,16.027
		c0.254,0.617,0.589,1.263,1.055,1.947c2.011,3.272,5.537,9.857,9.105,11.684C710.699,112.025,742.147,145.891,773.51,148.243z"/>
	<path fill="#7AC943" d="M746.121,84.016c37.525-4.379,60.207,11.562,60.207,11.562s0.118-0.139,0.293-0.347
		c6.087,3.688,14.004,3.799,20.328-0.399c8.727-5.793,11.109-17.57,5.313-26.299c-2.826-4.256-7.081-6.989-11.706-8.013
		c-0.567-0.16-1.199-0.28-1.928-0.329c-3.37-0.388-9.867-1.531-13.083-0.049C805.544,60.141,764.863,63.512,746.121,84.016z"/>
	<path fill="#FF931E" d="M438.768,210.545c16.824-23.109,37.327-27.538,37.327-27.538s-0.017-0.137-0.042-0.341
		c5.174-1.491,9.299-5.836,10.211-11.506c1.258-7.825-4.067-15.193-11.894-16.451c-3.817-0.613-7.52,0.349-10.463,2.396
		c-0.38,0.233-0.771,0.523-1.173,0.903c-1.945,1.674-5.915,4.7-6.742,7.248C455.993,165.256,436.989,189.602,438.768,210.545z"/>
	<path fill="#2E3192" d="M493.52,1124.161c-15.896-15.17-17.184-31.244-17.184-31.244s-0.106-0.001-0.264-0.002
		c-0.61-4.094-3.501-7.679-7.728-8.951c-5.834-1.755-11.99,1.553-13.745,7.389c-0.856,2.846-0.499,5.765,0.761,8.216
		c0.139,0.313,0.32,0.641,0.569,0.985c1.078,1.652,2.979,4.985,4.837,5.875C460.765,1106.429,477.382,1123.386,493.52,1124.161z"/>
	<path fill="#FF00FF" d="M307.686,233.545c-18.766,23.842-40.691,27.723-40.691,27.723s0.013,0.146,0.031,0.363
		c-5.548,1.376-10.096,5.82-11.289,11.798c-1.646,8.25,3.708,16.277,11.961,17.923c4.024,0.802,7.99-0.071,11.193-2.125
		c0.413-0.232,0.839-0.524,1.28-0.911c2.13-1.698,6.462-4.75,7.44-7.42C287.612,280.897,308.74,255.83,307.686,233.545z"/>
	<path fill="#BDCCD4" d="M1486.115,349.191c0,0,103.171,32.674,92.818,113.537c0,0-15.511,43.201-42.839,34.432
		c-27.329-8.766-37.127-49.877-6.57-66.79C1560.078,413.453,1517.779,356.47,1486.115,349.191z"/>
	<path fill="#7AC943" d="M1442.179,539.687c0,0,129.55,52.418,108.108,155.487c0,0-24.304,54.063-58.608,40.031
		c-34.305-14.028-42.795-67.939-1.758-86.649C1530.955,629.843,1482.214,552.235,1442.179,539.687z"/>
	<path fill="#FBB03B" d="M576.531,1228.927c0,0-51.803-97.004,13.135-148.438c0,0,41.948-20.393,55.589,5.385
		c13.643,25.776-8.422,62.619-42.644,53.219C568.388,1129.697,558.681,1201.154,576.531,1228.927z"/>
	<path fill="#C7B299" d="M1918.798,935.065c0,0,22.731,80.216-33.672,107.845c0,0-34.365,8.342-40.312-12.955
		c-5.949-21.296,16.339-45.03,40.175-32.547C1908.826,1009.888,1927.542,958.518,1918.798,935.065z"/>
	<path fill="#93278F" d="M930.567,871.801c0,0,31.939,141.05-68.318,183.68c0,0-60.297,11.264-68.625-26.175
		c-8.332-37.438,32.473-76.483,72.603-52.652C906.36,1000.479,943.539,913.236,930.567,871.801z"/>
	<path fill="#ED1E79" d="M1068.743,522.213c0,0-84.534-13.263-86.065-77.704c0,0,6.983-35.615,29.389-32.012
		c22.406,3.6,34.957,34.569,13.084,51.426C1003.281,480.782,1043.126,520.291,1068.743,522.213z"/>
	<path fill="#FF7BAC" d="M1493.503,468.993c0,0-44.337,139.292-153.541,125.148c0,0-58.322-21.036-46.424-57.932
		c11.895-36.897,67.443-50.05,90.228-8.743C1406.556,568.77,1483.608,511.748,1493.503,468.993z"/>
	<path fill="#0000FF" d="M864.349,473.091c0,0-119.709-43.465-103.579-138.037c0,0,20.351-50.036,52.054-38.389
		c31.704,11.645,41.213,60.461,4.458,78.852C780.529,393.914,827.476,462.983,864.349,473.091z"/>
	<path fill="#7AC943" d="M457.632,492.89c0,0,78.87-4.588,92.871,53.255c0,0,0.674,33.502-20.247,34.639
		c-20.921,1.139-38.31-24.345-21.876-43.838C524.81,517.451,481.122,489.607,457.632,492.89z"/>
	<path fill="#C1272D" d="M516.138,1110.939c0,0,13.873-108.983,96.518-113.347c0,0,45.967,7.636,42.178,36.525
		c-3.786,28.889-43.063,46.15-65.512,18.707C566.871,1025.384,517.65,1077.991,516.138,1110.939z"/>
	<path fill="#BDCCD4" d="M887.138,1024.444c0,0,69.082,18.527,64.633,72.222c0,0-8.966,28.981-27.268,23.998
		c-18.302-4.981-25.985-31.834-6.309-43.903C937.868,1064.69,908.259,1028.316,887.138,1024.444z"/>
	<path fill="#C7B299" d="M613.565,679.367c0,0,73.772-7.505,89.249,46.167c0,0,1.992,31.388-17.58,33.304
		c-19.572,1.918-36.913-21.273-22.294-40.219C677.556,699.671,635.458,675.335,613.565,679.367z"/>
	<path fill="#ED1C24" d="M1669.627,1317.357c0,0-122.455-91.376-71.182-194.422c0,0,40.702-50.428,73.085-26.072
		c32.385,24.353,26.405,83.719-22.183,92.118C1600.761,1197.387,1630.771,1292.979,1669.627,1317.357z"/>
	<path fill="#FF1D25" d="M1256.984,961.581c0,0-74.883-77.868-27.23-143.837c0,0,34.21-30.483,53.99-9.757
		c19.783,20.724,8.764,61.447-26.1,61.702C1222.782,869.948,1232.691,940.093,1256.984,961.581z"/>
	<path fill="#FF931E" d="M218.611,590.393c0,0,122.016-89.101,204.458-10.635c0,0,35.798,53.151,3.349,76.657
		c-32.446,23.51-86.804,0.567-80.588-47.794C352.04,560.261,252.966,560.776,218.611,590.393z"/>
	<path fill="#C69C6D" d="M1539.096,1041.217c0,0-69.672-19.58-72.249-45.502c-2.576-25.925-43.237-7.614-34.404,16.313
		C1441.275,1035.953,1508.699,1068.66,1539.096,1041.217z"/>
	<path fill="#8CC63F" d="M932.786,608.015c0,0-108.256,12.022-126.486-22.687c-18.231-34.713-64.619,13.79-38.788,42.183
		C793.344,655.903,905.874,663.463,932.786,608.015z"/>
	<path fill="#29ABE2" d="M898.772,1213.957c0,0-63.992-54.145-54.238-82.697c9.756-28.555-41.894-28.821-44.097,0.638
		C798.234,1161.357,853.543,1228.251,898.772,1213.957z"/>
	<path fill="#FFFF00" d="M1722.975,1249.018c0,0,64.974-71.648,97.513-59.268c32.542,12.382,34.895-47.169,1.011-50.877
		C1787.616,1135.166,1708.285,1196.295,1722.975,1249.018z"/>
	<path fill="#F7931E" d="M806.207,496.386c0,0-25.79,44.223-43.997,41.38c-18.208-2.844-12.899,28.25,5.053,26.456
		C785.215,562.427,819.593,522.076,806.207,496.386z"/>
	<path fill="#009245" d="M706.531,429.674c0,0,67.195,22.66,68.415,48.156c1.219,25.498,41.927,9.622,34.486-14.235
		C801.991,439.739,737.655,404.347,706.531,429.674z"/>
	<path fill="#FF1D25" d="M1331.557,1354.633c0,0-57.158,18.435-70.835,1.694c-13.678-16.743-33.389,14.577-16.302,27.067
		C1261.507,1395.883,1323.133,1387.557,1331.557,1354.633z"/>
	<path fill="#A67C52" d="M1578.531,924.556c0,0,18.225,51.163,3.466,63.983c-14.76,12.821,14.089,29.783,24.912,13.996
		C1617.732,986.749,1608.522,931.271,1578.531,924.556z"/>
	<path fill="#662D91" d="M1143.869,299.143c0,0-23.746,56.819-45.906,56.313c-22.162-0.507-10.904,35.73,10.218,30.745
		C1129.302,381.217,1163.902,327.656,1143.869,299.143z"/>
	<path fill="#8CC63F" d="M1027.537,54.701c0,0-59.085,52.292-84.364,39.347c-25.281-12.947-32.509,35.13-5.365,41.163
		C964.952,141.245,1034.74,98.764,1027.537,54.701z"/>
	<path fill="#754C24" d="M603.019,930.153c0,0,71.06-54.377,98.609-37.691c27.551,16.688,39.611-37.111,9.395-46.129
		C680.806,837.315,598.432,879.728,603.019,930.153z"/>
	<path fill="#006837" d="M1015.46,670.269c0,0,78.823-18.851,95.482,5.097c16.66,23.951,46.441-16.136,24.752-34.719
		C1114.005,622.063,1030.222,626.849,1015.46,670.269z"/>
	<path fill="#C1272D" d="M1930.671,906.64c0,0-90.69,43.41-117.137,18.706c-26.449-24.707-52.122,31.676-20.972,48.563
		C1823.713,990.794,1924.084,963.151,1930.671,906.64z"/>
	<path fill="#FF7BAC" d="M949.359,859.894c0,0,17.357,67.122-2.865,81.746c-20.224,14.624,14.528,39.469,30.083,20.627
		C992.132,943.426,986.727,871.841,949.359,859.894z"/>
	<path fill="#C69C6D" d="M805.737,427.968c0,0,56.952-25.343,72.917-9.578c15.967,15.767,32.847-18.734,13.833-29.736
		C873.472,377.653,810.792,393.058,805.737,427.968z"/>
	<path fill="#FF1D25" d="M1462.699,904.146c0,0,9.656,73.469,58.522,91.266c48.868,17.801,45.452-55.795,17.582-56.517
		c-27.874-0.724-32.142,7.787-32.142,7.787S1464.425,913.118,1462.699,904.146z"/>
	<path fill="#00FF00" d="M878.603,1113.518c0,0,0.807,45.394,29.328,59.601c28.521,14.21,31.522-30.83,14.605-33.194
		c-16.92-2.365-20.105,2.522-20.105,2.522S879.034,1119.099,878.603,1113.518z"/>
	<path fill="#2E3192" d="M1568.961,1213.794c0,0-33.743,27.417-27.61,57.307c6.132,29.893,41.857,5.556,33.648-8.593
		c-8.21-14.151-13.775-13.667-13.775-13.667S1565.009,1217.415,1568.961,1213.794z"/>
	<path fill="#29ABE2" d="M1622.687,1345.821c0,0-64.669,8.044-80.618,50.91c-15.952,42.867,48.791,40.311,49.596,15.806
		c0.806-24.509-6.652-28.313-6.652-28.313S1614.786,1347.284,1622.687,1345.821z"/>
	<path fill="#BDCCD4" d="M628.742,869.153c0,0-34.488-18.509-57.187-3.037c-22.701,15.471,9.918,36.696,18.82,24.965
		c8.904-11.732,6.57-16.186,6.57-16.186S624.362,867.127,628.742,869.153z"/>
	<path fill="#0071BC" d="M1660.67,624.191c0,0-13.38,45.62,10.684,68.732c24.064,23.116,41.139-20.961,24.97-28.61
		c-16.171-7.651-20.881-3.763-20.881-3.763S1659.357,629.904,1660.67,624.191z"/>
	<path fill="#D9E021" d="M602.307,219.589c0,0-39.584,68.066-10.037,114.765c29.545,46.704,74.46-17.417,51.486-36.121
		c-22.976-18.708-32.091-14.321-32.091-14.321S597.933,228.256,602.307,219.589z"/>
	<path fill="#FF7BAC" d="M594.749,180.968c0,0,38.342,71.965,95.567,71.416c57.228-0.545,25.267-75.052-3.727-65.025
		c-28.999,10.027-30.107,20.444-30.107,20.444S599.994,189.545,594.749,180.968z"/>
	<path fill="#FF0000" d="M474.434,379.899c0,0-29.599-57.314-74.87-57.461c-45.274-0.15-20.749,59.111,2.288,51.474
		c23.04-7.637,24.022-15.866,24.022-15.866S470.372,373.061,474.434,379.899z"/>
	<path fill="#998675" d="M1413.385,290.445c0,0-14.907,60.183,17.727,88.966c32.635,28.787,52.443-29.59,30.951-38.661
		c-21.494-9.074-27.417-3.746-27.417-3.746S1411.991,297.961,1413.385,290.445z"/>
	<path fill="#FF931E" d="M757.185,367.75c0,0-72.728-19.334-108.332,19.676c-35.609,39.01,34.826,64.254,46.279,38.36
		c11.455-25.897,5.113-33.195,5.113-33.195S748.092,365.902,757.185,367.75z"/>
	<path fill="#00FF00" d="M1731.38,860.814c0,0-9.734,58.13,23.3,83.026c33.034,24.9,47.544-31.875,26.512-38.904
		c-21.035-7.03-26.259-1.549-26.259-1.549S1730.607,868.04,1731.38,860.814z"/>
	<path fill="#00A99D" d="M1441.457,1155.447c0,0,11.896-74.346-30.532-105.844c-42.428-31.502-60.438,41.158-33.506,49.942
		c26.935,8.786,33.558,1.735,33.558,1.735S1442.377,1146.209,1441.457,1155.447z"/>
	<path fill="#F7931E" d="M1438.596,1105.672c0,0,38.998,16.776,62.078-2.064c23.084-18.84-14.147-38.726-22.67-25.218
		c-8.525,13.51-5.586,18.105-5.586,18.105S1443.519,1107.452,1438.596,1105.672z"/>
	<path fill="#7AC943" d="M546.033,482.306c0,0,21.444,58.323,64.7,63.873c43.259,5.554,26.897-54.024,3.964-49.477
		c-22.937,4.547-24.859,12.296-24.859,12.296S549.099,489.328,546.033,482.306z"/>
	<path fill="#1B1464" d="M982.835,1280.862c0,0-30.367-20.469-30.319-31.207c0.047-10.739,7.908-21.309,18.848-16.39
		c10.937,4.919,8.868,19.888,6.231,32.929C974.96,1279.234,982.835,1280.862,982.835,1280.862z"/>
	<path fill="#FFFF00" d="M714.02,650.276c0,0,66.756,16.14,73.688,35.048c6.935,18.909,0.022,42.626-22.422,41.128
		c-22.44-1.5-28.584-29.165-32.47-53.813C728.928,647.994,714.02,650.276,714.02,650.276z"/>
	<path fill="#FF7BAC" d="M1402.423,403.122c0,0,48.811,40.107,46.977,58.54c-1.832,18.435-17.058,35.305-35.042,25.073
		c-17.98-10.232-11.985-35.601-5.33-57.567C1415.681,407.204,1402.423,403.122,1402.423,403.122z"/>
	<path fill="#F7931E" d="M1108.611,1453.941c0,0-41.222-48.421-36.125-66.357c5.095-17.939,23.182-31.943,39.179-18.605
		c15.993,13.336,5.539,37.404-4.963,57.982C1096.202,1447.537,1108.611,1453.941,1108.611,1453.941z"/>
	<path fill="#FF931E" d="M1062.554,246.529c0,0-13.949-42.574-5.837-52.907c8.111-10.335,23.642-14.637,30.511-1.671
		c6.866,12.964-6.374,25.865-18.715,36.478C1056.173,239.041,1062.554,246.529,1062.554,246.529z"/>
	<path fill="#00A99D" d="M561.61,226.619c0,0-4.944-35.629,2.94-42.635c7.884-7.008,20.769-8.19,24.345,3.035
		c3.575,11.223-8.728,19.526-19.994,26.15C557.637,219.792,561.61,226.619,561.61,226.619z"/>
	<path fill="#FBB03B" d="M1787.715,762.295c0,0,37.607-29.114,50.829-24.683c13.225,4.43,23.058,18.429,12.539,29.916
		c-10.519,11.485-28.136,2.839-43.145-5.722C1792.93,753.246,1787.715,762.295,1787.715,762.295z"/>
	<path fill="#FF1D25" d="M1393.647,1222.486c0,0,51.082,45.838,48.219,65.758c-2.86,19.922-20.183,37.512-39.219,25.557
		c-19.031-11.955-11.325-39.207-3.063-62.733C1407.844,1227.544,1393.647,1222.486,1393.647,1222.486z"/>
	<path fill="#3FA9F5" d="M1455.08,1328.796c0,0-27.982,60.866-47.381,63.951c-19.401,3.088-40.804-7.982-35.156-29.183
		c5.649-21.197,33.282-21.884,57.604-20.977C1454.465,1343.494,1455.08,1328.796,1455.08,1328.796z"/>
	<path fill="#7AC943" d="M1423.783,307.778c0,0,21.865-58.405,39.668-62.581c17.804-4.179,38.425,4.652,34.615,24.719
		c-3.812,20.062-29.422,22.569-52.066,23.371C1423.36,294.09,1423.783,307.778,1423.783,307.778z"/>
	<path fill="#29ABE2" d="M1305.134,275.335c0,0-17.058,54.409-33.104,59.107c-16.047,4.701-35.313-2.337-32.832-20.847
		c2.483-18.506,25.74-22.068,46.373-23.926C1306.201,287.811,1305.134,275.335,1305.134,275.335z"/>
	<path fill="#D9E021" d="M709.386,673.046c0,0-47.486,6.216-56.733-4.353c-9.249-10.568-10.69-27.735,4.291-32.381
		c14.979-4.644,25.907,11.821,34.609,26.888C700.255,678.265,709.386,673.046,709.386,673.046z"/>
	<path fill="#9E005D" d="M1064.119,324.146c0,0,16.731-56.93,33.338-62.118c16.609-5.191,36.786,1.771,34.55,21.076
		c-2.237,19.301-26.369,23.442-47.802,25.762C1062.775,311.185,1064.119,324.146,1064.119,324.146z"/>
	<path fill="#00A99D" d="M1043.296,949.402c0,0-7.149,44.763-19.23,50.307c-12.081,5.546-28.046,2.23-28.227-12.615
		c-0.179-14.843,17.704-20.324,33.72-24.162C1045.572,959.093,1043.296,949.402,1043.296,949.402z"/>
	<path fill="#F7931E" d="M1492.912,593.453c0,0-36.219,57.545-56.15,58.08c-19.932,0.538-40.005-13.436-31.513-34.023
		c8.492-20.582,36.391-17.614,60.746-13.48C1490.347,608.162,1492.912,593.453,1492.912,593.453z"/>
	<path fill="#FFFF00" d="M1056.644,528.79c0,0-33.472,32.798-34.504,46.732c-1.036,13.935,8.315,52.064,37.603,52.814
		c29.284,0.751,26.582-31.669,13.664-54.034C1060.492,551.936,1056.644,528.79,1056.644,528.79z"/>
	<path fill="#FF00FF" d="M369.717,477.298c0,0-47.814,12.707-56.014,24.969c-8.204,12.261-19.457,52.151,7.055,68.081
		c26.508,15.93,40.898-15.256,40.672-42.522C361.207,500.561,369.717,477.298,369.717,477.298z"/>
	<path fill="#8C6239" d="M365.639,868.401c0,0-32.294,16.767-36.22,26.881c-3.929,10.114-5.63,40.55,15.95,47.747
		c21.577,7.198,26.921-17.491,22.399-37.029C363.249,886.462,365.639,868.401,365.639,868.401z"/>
	<path fill="#F7931E" d="M1287.509,489.768c0,0,44.238-10.127,52.146-21.107c7.911-10.979,19.498-47.189-4.299-62.638
		c-23.793-15.448-37.978,12.683-38.64,37.686C1296.052,468.713,1287.509,489.768,1287.509,489.768z"/>
	<path fill="#D9E021" d="M850.755,187.838c0,0-21.052,19.049-22.012,27.46c-0.962,8.411,3.781,31.718,21.492,32.877
		c17.709,1.16,16.854-18.532,9.572-32.382C852.527,201.942,850.755,187.838,850.755,187.838z"/>
	<path fill="#FF7BAC" d="M1911.439,872.821c0,0,10.039-26.076,7.15-33.89c-2.887-7.816-17.397-26.184-33.469-19.342
		c-16.071,6.841-6.581,23.758,5.962,32.693C1903.623,861.218,1911.439,872.821,1911.439,872.821z"/>
	<path fill="#FF7BAC" d="M180.541,351.242c0,0,25.292,11.583,33.235,9.194c7.944-2.387,27.091-15.673,21.283-32.065
		c-5.806-16.391-23.202-8.004-32.854,3.908C192.552,344.191,180.541,351.242,180.541,351.242z"/>
	<path fill="#F15A24" d="M1536.213,213.559c0,0-16.616,41.147-12.231,53.631c4.383,12.486,26.948,42.029,52.647,31.58
		c25.697-10.446,11.065-37.556-8.621-52.069C1548.324,232.186,1536.213,213.559,1536.213,213.559z"/>
	<path fill="#C7B299" d="M1459.318,1158.395c0,0-24.938,42.293-22.19,56.672c2.745,14.381,22.583,50.412,52.419,43.2
		c29.833-7.21,18.275-39.276-0.882-58.388C1469.511,1180.764,1459.318,1158.395,1459.318,1158.395z"/>
	<path fill="#009245" d="M1896.401,1127.969c0,0-13.753-51.212-26.918-59.966c-13.165-8.758-55.95-20.708-72.95,7.751
		c-17,28.456,16.466,43.792,45.689,43.473C1871.444,1118.913,1896.401,1127.969,1896.401,1127.969z"/>
	<path fill="#8CC63F" d="M1532.581,1224.154c0,0,22.603-38.713,20.037-51.831c-2.563-13.12-20.818-45.939-48.03-39.236
		c-27.21,6.701-16.531,35.932,1.035,53.307C1523.186,1203.77,1532.581,1224.154,1532.581,1224.154z"/>
	<path fill="#C69C6D" d="M1506.761,221.833c0,0-3.873-26.635-9.986-31.834c-6.112-5.201-26.964-13.781-37.233-0.451
		c-10.269,13.327,5.683,23.057,20.432,24.642C1494.723,215.777,1506.761,221.833,1506.761,221.833z"/>
	<path fill="#FF00FF" d="M1150.123,851c0,0,23.656,9.396,30.802,6.839c7.147-2.555,24.019-15.595,17.941-30.302
		c-6.076-14.705-21.578-6.223-29.838,5.116C1160.767,843.992,1150.123,851,1150.123,851z"/>
	<path fill="#FBB03B" d="M1782.345,538.88c0,0-25.532-48.069-40.716-53.801c-15.183-5.735-60.733-7.853-71.196,24.526
		c-10.464,32.375,26.54,40.023,55.701,32.986C1755.296,535.558,1782.345,538.88,1782.345,538.88z"/>
	<path fill="#F15A24" d="M1484.67,442.428c0,0,19.34-15.742,20.569-23.075c1.23-7.334-1.86-27.995-17.342-29.825
		c-15.481-1.83-15.634,15.481-9.883,27.964C1483.763,429.975,1484.67,442.428,1484.67,442.428z"/>
	<path fill="#A67C52" d="M1485.846,678.316c0,0-46.899,15.587-70.418-17.563c-23.519-33.15-43.326-16.149-42.222-6.561
		C1374.309,663.776,1426.219,716.882,1485.846,678.316z"/>
	<path fill="#FF931E" d="M828.642,767.787c0,0-34.769,13.697-53.89-10.366c-19.121-24.062-33.376-10.411-32.149-3.218
		C743.832,761.395,785.208,799.357,828.642,767.787z"/>
	<path fill="#754C24" d="M1300.347,1247.344c0,0,27.355-38.378,64.111-26.072c36.756,12.306,42.45-11.927,36.209-18.69
		C1394.427,1195.822,1324.583,1184.111,1300.347,1247.344z"/>
	<path fill="#006837" d="M573.439,264.906c0,0-46.41-48.97-19.03-97.232c27.38-48.263-5.103-62.915-16.318-56.003
		C526.879,118.581,491.251,213.495,573.439,264.906z"/>
	<path fill="#006837" d="M1184.796,272.379c0,0,30.957-19.805,53.968-0.207c23.01,19.598,34.181,3.724,31.634-2.985
		C1267.85,262.479,1220.729,233.685,1184.796,272.379z"/>
	<path fill="#C69C6D" d="M1007.422,909.213c0,0,32.321-7.793,46.209,15.76c13.889,23.553,28.129,13.278,27.932,6.789
		C1081.366,925.275,1049.575,886.736,1007.422,909.213z"/>
	<path fill="#2E3192" d="M1724.553,580.213c0,0,31.551-14.791,50.76,6.478c19.209,21.268,31.672,7.726,30.107,1.104
		C1803.855,581.175,1763.117,548.28,1724.553,580.213z"/>
	<path fill="#FFFF00" d="M1192.498,1052.106c0,0,51.736-19.547,79.531,16.459c27.795,36.005,49.174,16.1,47.508,5.43
		C1317.87,1063.329,1257.428,1006.291,1192.498,1052.106z"/>
	<path fill="#00FF00" d="M1241.649,453.799c0,0,8.173-66.763,62.652-76.359c54.479-9.597,45.118-43.867,32.684-48.099
		C1324.555,325.11,1228.983,357.988,1241.649,453.799z"/>
	<path fill="#00FFFF" d="M1102.976,895.207c0,0-13.14-49.294,22.482-71.463c35.621-22.169,19.337-43.636,9.39-43.096
		C1124.903,781.189,1066.952,831.368,1102.976,895.207z"/>
	<path fill="#534741" d="M1349.926,1325.879c0,0-27.909,17.665-48.504-0.048c-20.595-17.713-30.704-3.495-28.443,2.546
		C1275.238,1334.416,1317.463,1360.5,1349.926,1325.879z"/>
	<path fill="#A67C52" d="M182.319,539.325c0,0,26.014-50.005,71.595-41.545c45.58,8.46,48.293-21.188,39.775-28.16
		C285.174,462.651,200.504,460.401,182.319,539.325z"/>
	<path fill="#8CC63F" d="M1350.951,343.316c0,0,34.228,29.969,18.87,64.087c-15.358,34.119,7.369,41.92,14.466,36.577
		C1391.382,438.638,1409.353,372.681,1350.951,343.316z"/>
	<path fill="#006837" d="M945.958,262.281c0,0,7.338,50.164-30.361,67.978c-37.699,17.814-24.076,40.867-14.195,41.471
		C911.281,372.332,974.225,329.419,945.958,262.281z"/>
	<path fill="#F7931E" d="M989.977,43.192c0,0-23.003,21.794-45.669,8.931c-22.666-12.863-29.55,2.392-26.305,7.66
		C921.248,65.05,965.824,81.79,989.977,43.192z"/>
	<path fill="#FCEE21" d="M1445.043,1456.537c0,0-29.997,15.269-49.207-4.664c-19.213-19.935-30.821-6.469-29.105-0.126
		C1368.45,1458.089,1408.812,1488.575,1445.043,1456.537z"/>
	<path fill="#736357" d="M1644.514,533.632c0,0-20.771-32.699-0.032-56.883c20.74-24.19,4.044-36.017-3.035-33.358
		C1634.369,446.052,1603.852,495.623,1644.514,533.632z"/>
	<path fill="#00A99D" d="M1695.883,1227.362c0,0-7.402,38.916-39.791,42.432c-32.394,3.518-28.225,24.022-21.086,26.994
		C1642.146,1299.758,1699.594,1284.16,1695.883,1227.362z"/>
	<path fill="#00A99D" d="M171.197,850.661c0,0,34.974,5.719,38.867,34.603c3.895,28.888,22.136,24.685,24.629,18.232
		C237.184,897.042,221.906,846.028,171.197,850.661z"/>
	<path fill="#C1272D" d="M1014.076,764.366c0,0-59.854-16.534-61.21-67.585c-1.358-51.059-33.925-47.164-39.481-36.391
		C907.833,671.166,924.864,762.91,1014.076,764.366z"/>
	<path fill="#FF7BAC" d="M363.673,592.655c0,0-19.974,28.65-47.305,19.811c-27.335-8.838-31.366,9.163-26.692,14.127
		C294.353,631.555,346.2,639.698,363.673,592.655z"/>
	<path fill="#1B1464" d="M1792.766,767.125c0,0,36.759,21.208,28.896,55.213c-7.863,34.01,14.35,37.022,19.874,30.848
		C1847.057,847.009,1851.533,783.395,1792.766,767.125z"/>
	<path fill="#0071BC" d="M1163.72,254.766c0,0,38.033,36.544,18.411,75.231c-19.623,38.694,6.281,48.947,14.786,43.144
		C1205.422,367.335,1229.78,291.912,1163.72,254.766z"/>
	<path fill="#3FA9F5" d="M523.906,770.596c0,0,30.691-37.723,67.73-22.631c37.045,15.092,44.5-9.489,38.521-16.863
		C624.176,723.729,553.021,707.074,523.906,770.596z"/>
	<path fill="#ED1E79" d="M1168.726,1215.124c0,0-28.616-27.464-13.878-56.565c14.739-29.106-4.745-36.805-11.138-32.437
		C1137.318,1130.492,1119.034,1187.22,1168.726,1215.124z"/>
	<path fill="#FF7BAC" d="M512.54,795.456c0,0-29.496-44.792-1.338-78.743c28.16-33.957,4.779-49.951-4.96-46.109
		C496.504,674.45,455.387,743.764,512.54,795.456z"/>
	<path fill="#F7931E" d="M539.3,776.452c0,0,53.146-3.002,68.26,38.086c15.118,41.092,40.497,28.991,42.051,18.716
		C651.161,822.979,612.149,753.147,539.3,776.452z"/>
	<path fill="#998675" d="M753.147,977.686c0,0-33.255-7.78-35.114-35.807c-1.861-28.031-19.674-25.179-22.491-19.137
		C692.726,928.786,704.088,978.833,753.147,977.686z"/>
	<path fill="#FF931E" d="M329.813,516.195c0,0,10.274-66.675,65.189-74.59c54.922-7.92,46.603-42.568,34.276-47.201
		C416.949,389.775,320.107,419.749,329.813,516.195z"/>
	<path fill="#998675" d="M260.853,603.895c0,0,3.145,44.061-30.761,57.108c-33.91,13.05-23.556,33.959-15.012,35.122
		C223.625,697.285,281.087,664.054,260.853,603.895z"/>
	<path fill="#22B573" d="M1394.736,871.111c0,0,7.834-57.424,12.288-68.627c4.454-11.203,45.188-6.627,28.528,23.715
		C1418.889,856.54,1404.643,842.033,1394.736,871.111z"/>
	<path fill="#7AC943" d="M1515.683,763.97c0,0-28.668,51.065-37.011,59.942c-8.343,8.877-44.93-10.538-18.014-32.873
		C1487.576,768.703,1495.584,787.624,1515.683,763.97z"/>
	<path fill="#0000FF" d="M1201.223,879.037c0,0-16.583,54.626-22.663,64.827c-6.081,10.201-44.983-0.609-24.044-27.518
		C1175.458,889.439,1187.049,905.772,1201.223,879.037z"/>
	<path fill="#FBB03B" d="M1324.382,1050.819c0,0-67.263-50.468-78.32-64.023c-11.057-13.555,23.5-61.96,50.201-19.422
		C1322.962,1009.916,1294.515,1017.735,1324.382,1050.819z"/>
	<path fill="#7AC943" d="M985.127,1111.103c0,0,26.945,59.556,29.407,72.929c2.462,13.373-39.197,33.424-41.472-5.552
		C970.789,1139.504,993.097,1144.822,985.127,1111.103z"/>
	<path fill="#FF00FF" d="M35.158,515.709c0,0,110.438-32.406,134.359-33.425c23.92-1.019,48.685,76.525-19.83,70.953
		C81.17,547.661,95.902,510.065,35.158,515.709z"/>
	<path fill="#D4145A" d="M907.845,537.931c0,0,88.699-30.392,108.129-32.092s42.406,60.507-13.557,58.465
		C946.454,562.26,957.074,531.127,907.845,537.931z"/>
	<path fill="#00FFFF" d="M225.315,764.333c0,0-30.841,52.661-39.703,61.751c-8.861,9.09-46.613-11.834-18.144-34.594
		C195.94,768.73,203.923,788.597,225.315,764.333z"/>
	<path fill="#00FF00" d="M1636.147,881.165c0,0,80.661,32.882,95.303,43.556c14.642,10.674-7.256,68.258-45.191,32.657
		C1648.323,921.774,1674.77,906.462,1636.147,881.165z"/>
	<path fill="#C1272D" d="M444.873,615.648c0,0,90.023-19.356,109.168-18.761s34.34,63.923-19.998,55.444
		C479.704,643.849,493.671,614.719,444.873,615.648z"/>
	<path fill="#009245" d="M295.672,506.694c0,0-42.216,63.437-53.913,74.135c-11.697,10.697-57.259-18.089-20.141-44.423
		C258.738,510.073,267.268,535.409,295.672,506.694z"/>
	<path fill="#736357" d="M918.074,912.795c0,0-33.54,51.678-42.897,60.436s-46.46-14.092-16.696-35.727
		C888.247,915.87,895.378,936.274,918.074,912.795z"/>
	<path fill="#00FF00" d="M1734.347,418.371c0,0-68.691-3.965-82.362-8.202c-13.671-4.237-12.019-52.872,25.432-35.957
		C1714.869,391.13,1699.015,409.333,1734.347,418.371z"/>
	<path fill="#998675" d="M1375.662,290.401c0,0-89.914-44.21-105.858-57.634s13.808-77.741,54.479-33.843
		C1364.952,242.826,1333.375,258.272,1375.662,290.401z"/>
	<path fill="#FCEE21" d="M1552.811,600.684c0,0,71.498,59.33,82.967,74.886c11.469,15.556-29.283,67.104-56.448,18.718
		C1552.166,645.9,1583.981,638.809,1552.811,600.684z"/>
	<path fill="#BDCCD4" d="M604.65,961.486c0,0,32.05-4.49,36.787,9.971c4.733,14.457,33.548,24.535,41.351-0.533
		C690.589,945.855,634.204,918.038,604.65,961.486z"/>
	<path fill="#FF7BAC" d="M1070.17,497.118c0,0,32.626,34.285,19.464,52.229c-13.16,17.937-0.61,60.778,35.84,48.712
		C1161.923,585.991,1146.992,495.266,1070.17,497.118z"/>
	<path fill="#39B54A" d="M1598.806,1291.962c0,0,23.48,23.873,14.379,36.721c-9.1,12.842,0.277,43.002,25.922,34.042
		C1664.751,1353.763,1653.13,1289.756,1598.806,1291.962z"/>
	<path fill="#FF0000" d="M409.479,968.159c0,0,31.442,31.862,19.303,49.057c-12.137,17.188,0.467,57.485,34.729,45.45
		C497.773,1050.627,482.095,965.089,409.479,968.159z"/>
	<path fill="#009245" d="M839.295,915.821c0,0,18.99-19.019,29.368-11.807c10.374,7.211,34.512-0.535,27.134-21.053
		C888.417,862.444,837.13,872.236,839.295,915.821z"/>
	<path fill="#FBB03B" d="M1108.846,1320.901c0,0-11.681-29.452,0.982-37.301c12.659-7.845,15.585-37.587-10.067-39.215
		C1074.109,1242.759,1060.681,1302.829,1108.846,1320.901z"/>
	<path fill="#8CC63F" d="M596.429,1186.922c0,0,22.829-1.515,25.424,8.926c2.593,10.438,22.39,19.028,29.183,1.755
		C657.828,1180.328,619.506,1157.81,596.429,1186.922z"/>
	<path fill="#D4145A" d="M1826.464,987.398c0,0-33.236,24.12-47.157,10.738c-13.914-13.379-52.202-7.509-46.014,25.226
		C1739.484,1056.097,1819.228,1053.682,1826.464,987.398z"/>
	<path fill="#ED1E79" d="M132.581,408.439c0,0,3.931,23.484-6.612,27.252c-10.54,3.765-17.387,25.155,1.203,30.403
		C145.763,471.339,165.116,429.323,132.581,408.439z"/>
	<path fill="#534741" d="M1413.899,1433.742c0,0,41.758-13.764,51.592,4.422c9.829,18.181,50.789,24.675,55.15-10.726
		C1524.998,1392.035,1442.887,1368.503,1413.899,1433.742z"/>
	<path fill="#C69C6D" d="M1423.521,195.502c0,0-11.898,20.139-22.206,16.302c-10.304-3.836-28.979,7.911-18.324,23.613
		C1393.647,251.118,1434.767,231.777,1423.521,195.502z"/>
	<path fill="#29ABE2" d="M1531.46,886.722c0,0-41.841,3.043-46.72-16.071c-4.875-19.107-41.274-34.628-53.53-2.878
		C1418.958,899.526,1489.486,940.369,1531.46,886.722z"/>
	<path fill="#00A99D" d="M952.181,1014.562c0,0,30.271,16.994,24.916,32.414c-5.354,15.414,12.689,42.738,35.637,26.414
		C1035.682,1057.063,1005.636,996.685,952.181,1014.562z"/>
	<path fill="#2E3192" d="M1507.148,353.015c0,0,5.357-23.681,16.762-23.166c11.401,0.516,26.121-17.027,10.603-29.157
		C1518.992,288.563,1484.506,320.744,1507.148,353.015z"/>
	<path fill="#D4145A" d="M1270.965,1473.526c0,0,24.245-25.918,38.251-16.846c14.001,9.07,45.525-2.191,34.905-28.952
		C1333.499,1400.967,1266.232,1416.096,1270.965,1473.526z"/>
	<path fill="#FFFF00" d="M1313.711,603.505c0,0-23.08,6.27-22.476,24.317c0.609,18.045-10.769,22.351-16.415,12.305
		C1269.173,630.081,1263.923,602.998,1313.711,603.505z"/>
	<path fill="#D9E021" d="M762.133,1178.881c0,0,2.539,18.015,16.217,19.273c13.677,1.255,15.846,10.251,7.727,13.558
		C777.96,1215.021,757.02,1216.409,762.133,1178.881z"/>
	<path fill="#FF1D25" d="M1209.421,1605.38c0,0,16.513-4.698,15.924-17.647c-0.592-12.947,7.538-16.135,11.677-8.973
		C1241.162,1585.922,1245.162,1605.317,1209.421,1605.38z"/>
	<path fill="#D4145A" d="M744.285,551.486c0,0-20.531,27.229-4.083,47.038c16.451,19.802,7.391,34.595-7.747,28.206
		C717.314,620.344,687.737,594.411,744.285,551.486z"/>
	<path fill="#009245" d="M1411.161,134.925c0,0,6.471,17.508,20.458,15.789c13.985-1.722,18.12,6.825,10.701,11.909
		C1434.903,167.708,1414.212,173.663,1411.161,134.925z"/>
	<path fill="#7AC943" d="M1708.134,439.655c0,0,13.083,11.133,23.532,3.45c10.446-7.685,17.616-2.69,13.954,4.733
		C1741.959,455.263,1728.04,469.366,1708.134,439.655z"/>
	<path fill="#736357" d="M898.624,81.94c0,0-16.511-13.189-29.066-3.344c-12.551,9.848-21.557,3.979-17.338-5.288
		C856.437,64.04,873.014,46.169,898.624,81.94z"/>
	<path fill="#FF00FF" d="M307.894,809.697c0,0-10.847-18.318-26.189-13.525c-15.339,4.797-21.729-3.946-14.446-11.17
		C274.541,777.777,296.536,766.857,307.894,809.697z"/>
	<path fill="#ED1C24" d="M324.345,844.17c0,0,18.306-12.636,12.195-28.28c-6.114-15.64,2.535-22.935,10.593-15.869
		C355.194,807.087,368.174,829.22,324.345,844.17z"/>
	<path fill="#998675" d="M1584.895,1234.538c0,0-0.198,22.809,16.528,26.91c16.725,4.096,17.743,15.654,7.063,18.246
		C1597.805,1282.288,1571.584,1280.121,1584.895,1234.538z"/>
	<path fill="#998675" d="M1162.165,874.707c0,0-33.008,13.36-28.916,39.932c4.099,26.568-11.958,34.951-22.085,21.1
		C1101.034,921.89,1088.473,882.782,1162.165,874.707z"/>
	<path fill="#1B1464" d="M855.319,794.619c0,0,13.76,34.143,41.236,29.954c27.471-4.197,36.112,12.416,21.778,22.863
		C904,857.887,863.553,870.812,855.319,794.619z"/>
	<path fill="#C1272D" d="M1180.25,949.008c0,0-22.84,24.301-8.945,45.3c13.9,20.992,3.527,34.416-10.515,26.604
		C1146.745,1013.101,1120.732,984.76,1180.25,949.008z"/>
	<path fill="#C1272D" d="M452.838,475.794c0,0,22.57-20.983,11.065-41.206c-11.508-20.218-1.11-31.948,11.35-23.872
		C487.716,418.79,509.934,446.538,452.838,475.794z"/>
	<path fill="#FCEE21" d="M748.025,205.138c0,0-2.556,27.471,17.187,34.113c19.742,6.636,19.795,20.67,6.659,22.709
		C758.733,264.001,727.35,258.724,748.025,205.138z"/>
	<path fill="#998675" d="M338.587,344.428c0,0,22.157,31.882-8.933,65.964c-31.089,34.079,8.659,36.094,12.249,17.681
		C345.488,409.657,370.291,380.988,338.587,344.428z"/>
	<path fill="#0000FF" d="M525.478,722.174c0,0,12.788-33.878,55.41-28.001c42.62,5.877,23.159-25.731,7.112-18.757
		C571.955,682.394,536.815,678.487,525.478,722.174z"/>
	<path fill="#A67C52" d="M1366.378,988.67c0,0-18.827-35.933,17.834-67.225c36.66-31.291-4.286-38.545-10.401-19.922
		C1367.701,920.149,1338.261,946.647,1366.378,988.67z"/>
	<path fill="#FFFF00" d="M1621.616,929.18c0,0,29.005,19.375,14.212,58.09c-14.792,38.713,19.103,27.333,16.053,10.757
		C1648.826,981.45,1660.142,949.327,1621.616,929.18z"/>
	<path fill="#00FF00" d="M770.744,1061.554c0,0,11.556,30.403-20.617,51.813c-32.172,21.409-0.269,31.094,6.377,16.853
		C763.147,1115.976,789.114,1097.693,770.744,1061.554z"/>
	<path fill="#C69C6D" d="M1173.062,917.406c0,0,42.567,21.803,28.539,76.871c-14.028,55.065,30.339,34.207,23.564,12.114
		C1218.384,984.297,1228.718,938.757,1173.062,917.406z"/>
	<path fill="#FF0000" d="M642.408,326.513c0,0,23.584-34.611,69.904-16.421c46.318,18.189,33.029-22.634,13.093-19.155
		C705.469,294.421,667.026,280.479,642.408,326.513z"/>
	<path fill="#FF1D25" d="M1786.698,689.648c0,0-3.665-35.493,36.488-49.103c40.151-13.609,9.066-32.886-2.001-19.666
		C1810.119,634.103,1777.429,646.151,1786.698,689.648z"/>
	<path fill="#D9E021" d="M241.281,314.254c0,0,53.601-13.88,83.824,44.555c30.221,58.432,52.563,6.258,29.706-7.646
		C331.948,337.264,305.858,289.914,241.281,314.254z"/>
	<path fill="#736357" d="M758.124,772.905c0,0-30.732,33.034-77.112,6.146c-46.377-26.887-38.849,18.746-17.053,18.276
		C685.757,796.851,724.437,817.937,758.124,772.905z"/>
	<path fill="#C7B299" d="M459.664,1061.777c0,0,47.162,5.651,53.058,61.781c5.896,56.126,40.042,21.418,26.122,3.17
		C524.919,1108.481,518.863,1062.5,459.664,1061.777z"/>
	<path fill="#ED1E79" d="M1177.006,1033.204c0,0-19.93,60.035-94.74,52.787c-74.807-7.249-38.607,46.549-11.09,33.243
		C1098.691,1105.921,1160.303,1110.259,1177.006,1033.204z"/>
	<path fill="#006837" d="M1805.76,698.087c0,0,55.091,8.061,60.288,74.011c5.197,65.947,46.268,26.318,30.513,4.511
		C1880.801,754.804,1875.106,700.739,1805.76,698.087z"/>
	<path fill="#A67C52" d="M1064.628,693.662c0,0-24.13,21.175-55.028-1.194c-30.896-22.368-28.848,10.477-13.385,11.711
		C1011.678,705.409,1037.544,723.117,1064.628,693.662z"/>
	<path fill="#3FA9F5" d="M981.78,1240.46c0,0,49.176,15.931,43.695,77.106c-5.481,61.172,38.266,31.273,27.23,8.866
		C1041.664,1304.025,1044.844,1253.653,981.78,1240.46z"/>
	<path fill="#93278F" d="M1221.244,599.887c-0.618-1.723,15.766,80.559-15.154,103.252c-30.914,22.691-47.636,41.88-32.233,65.469
		c15.406,23.588,93.559,20.281,88.404-50.567C1257.108,647.184,1227.11,616.242,1221.244,599.887z"/>
	<path fill="#29ABE2" d="M541.343,515.612c1.515-0.502-70.562,12.01-89.677-15.432c-19.114-27.436-35.481-42.425-56.375-29.506
		c-20.893,12.922-19.692,81.118,42.177,78.149C499.343,545.856,526.96,520.373,541.343,515.612z"/>
	<path fill="#93278F" d="M1281.657,1286.462c1.381,1.58-50.536-79.403-27.022-116.565c23.508-37.157,33.331-64.639,7.018-83.376
		c-26.315-18.735-108.363,17.494-73.217,90.97C1223.583,1250.976,1268.552,1271.457,1281.657,1286.462z"/>
	<path fill="#1B1464" d="M1037.613,939.664c-1.073-0.783,42.276,41.943,32.955,68.161c-9.318,26.214-11.542,44.545,7.313,52.433
		c18.856,7.886,64.43-25.93,32.479-66.365C1078.407,953.453,1047.795,947.094,1037.613,939.664z"/>
	<path fill="#ED1E79" d="M1017.312,29.69c-0.974-0.904,37.097,46.663,24.75,71.63c-12.344,24.964-16.708,42.925,1.108,52.982
		c17.818,10.056,67.096-18.205,40.086-62.155C1056.244,48.191,1026.561,38.272,1017.312,29.69z"/>
	<path fill="#A67C52" d="M311.648,309.823c-1.683,1.14,82.313-39.182,115.255-12.179c32.937,26.997,58.193,39.693,79.32,16.616
		c21.125-23.08-3.99-106.242-78.784-81.153C352.635,258.196,327.624,299.002,311.648,309.823z"/>
	<path fill="#8CC63F" d="M473.178,814.6c-0.582-1.295,17.051,61.33-5.484,80.74c-22.531,19.408-34.3,35.253-20.968,52.56
		c13.334,17.306,73.556,10.033,65.295-44.43C503.759,849.001,478.699,826.89,473.178,814.6z"/>
	<path fill="#ED1E79" d="M1817.039,893.169c1.54,1.563-57.736-79.726-35.518-119.996c22.213-40.265,30.744-69.57,2.099-87.482
		c-28.647-17.909-112.03,25.056-70.733,99.56C1754.187,859.764,1802.418,878.326,1817.039,893.169z"/>
	<path fill="#FBB03B" d="M966.308,361.493c0.276-2.076-26.25,90.192-69.602,97.039c-43.345,6.848-70.42,17.584-67.138,49.655
		c3.286,32.071,84.492,69.728,116.435-5.02C977.952,428.41,963.688,381.202,966.308,361.493z"/>
	<path fill="#0000FF" d="M1131.256,913.22c1.966,0.628-82.922-41.141-82.027-84.383c0.893-43.235-4.815-71.364-36.493-73.755
		c-31.68-2.388-82.324,69.835-15.371,113.814C1064.323,912.882,1112.594,907.253,1131.256,913.22z"/>
	<path fill="#534741" d="M1557.717,685.361c-1.072-1.826,35.204,88.219,4.912,120.653c-30.285,32.43-45.183,57.836-22.61,81.354
		c22.576,23.517,110.731,2.996,89.676-76.457C1608.639,731.449,1567.894,702.7,1557.717,685.361z"/>
	<path fill="#754C24" d="M1513.636,758.336c1.319-0.038-58.722-7.246-67.342-33.513c-8.62-26.262-18.02-42.017-37.631-36.749
		c-19.611,5.27-34.854,59.553,14.839,71.893C1473.2,772.31,1501.118,758.69,1513.636,758.336z"/>
	<path fill="#FBB03B" d="M795.724,121.897c-1.993-0.288,86.408,26.225,92.512,67.973c6.105,41.74,16.128,67.884,46.991,65.082
		c30.865-2.805,67.956-80.45-3.544-111.978C860.176,111.441,814.64,124.632,795.724,121.897z"/>
	<path fill="#D4145A" d="M1435.935,774.905c1.768,0.541-74.727-35.922-74.408-74.66c0.317-38.732-5.109-63.862-33.508-65.65
		c-28.401-1.785-72.952,63.465-12.497,102.107C1375.983,775.349,1419.154,769.768,1435.935,774.905z"/>
	<path fill="#39B54A" d="M1383.786,363.774c0.374,0.979-9.96-45.917,7.471-59.263c17.427-13.345,26.773-24.521,17.684-37.84
		c-9.091-13.319-53.776-10.517-50.002,29.966C1362.713,337.125,1380.24,354.483,1383.786,363.774z"/>
</g>
</svg>
